# xmcd
#
# Track frame offsets:
#	150
#	18650
#	34441
#	49786
#	71019
#	85088
#	107863
#	126778
#	144863
#	163157
#	180463
#	201048
#	220962
#	238882
#	255952
#	275694
#
# Disc length: 3947 seconds
#
# Revision: 2
# Processed by: cddbd v1.5.1PL0 Copyright (c) Steve Scherf et al.
# Submitted via: audiograbber 1.83.01
#
DISCID=eb0f6910
DTITLE=Various Artist - Dudes Rule the Charts
DYEAR=2003
DGENRE=Karaoke
TTITLE0=John Mayer - No Such Thing
TTITLE1=Chad Kroeger with Josey Scott - Hero
TTITLE2=Smashmouth - I'm a Believer
TTITLE3=Sting - Brand New Day
TTITLE4=Jimmy Eat World - The Middle
TTITLE5=Eminem - Cleaning Out My Closet
TTITLE6=Creed - One Last Breath
TTITLE7=Nickleback - How You Remind Me
TTITLE8=Justin Timberlake - Like I Love You
TTITLE9=Matchbox Twenty - Disease
TTITLE10=Eminem - Lose Yourself
TTITLE11=Foo Fighters - All My Life
TTITLE12=Sean Paul - Gimme the Light
TTITLE13=Puddle of Mudd - She Hates Me
TTITLE14=John Mayer - Your Body is a Wonderland
TTITLE15=3 Doors Down - When I'm Gone
EXTD=YEAR: 2003
EXTT0=
EXTT1=
EXTT2=
EXTT3=
EXTT4=
EXTT5=
EXTT6=
EXTT7=
EXTT8=
EXTT9=
EXTT10=
EXTT11=
EXTT12=
EXTT13=
EXTT14=
EXTT15=
PLAYORDER=
